<mxfile host="app.diagrams.net" modified="2021-02-23T03:19:00.345Z" agent="5.0 (Macintosh; Intel Mac OS X 10_15_7) AppleWebKit/537.36 (KHTML, like Gecko) Chrome/87.0.4280.88 Safari/537.36" etag="ET9Nxt46QfoWN2kUNYcH" version="13.7.5" type="github">
  <diagram id="-K85PkvrWkYqbW4fEmk9" name="Page-1">
    <mxGraphModel dx="590" dy="565" grid="0" gridSize="10" guides="1" tooltips="1" connect="1" arrows="1" fold="1" page="1" pageScale="1" pageWidth="850" pageHeight="1100" math="0" shadow="0">
      <root>
        <mxCell id="0" />
        <mxCell id="1" parent="0" />
        <mxCell id="Ga7t-dFnKdL9NbBifjGf-1" value="User" style="shape=umlActor;verticalLabelPosition=bottom;verticalAlign=top;html=1;outlineConnect=0;" parent="1" vertex="1">
          <mxGeometry x="130" y="280" width="70" height="160" as="geometry" />
        </mxCell>
        <mxCell id="Ga7t-dFnKdL9NbBifjGf-4" value="I want to eat Mexican food, but I want to eat as close to my office as possible." style="shape=callout;whiteSpace=wrap;html=1;perimeter=calloutPerimeter;fontFamily=Helvetica;" parent="1" vertex="1">
          <mxGeometry x="130" y="170" width="200" height="110" as="geometry" />
        </mxCell>
        <mxCell id="Ga7t-dFnKdL9NbBifjGf-5" value="" style="rounded=0;whiteSpace=wrap;html=1;fontFamily=Helvetica;" parent="1" vertex="1">
          <mxGeometry x="200" y="310" width="20" height="40" as="geometry" />
        </mxCell>
        <mxCell id="Ga7t-dFnKdL9NbBifjGf-6" value="Pre-set max distance to &quot;3 miles&quot;" style="rounded=0;whiteSpace=wrap;html=1;fontFamily=Helvetica;" parent="1" vertex="1">
          <mxGeometry x="360" y="250" width="140" height="60" as="geometry" />
        </mxCell>
        <mxCell id="Ga7t-dFnKdL9NbBifjGf-7" value="&lt;span&gt;Set &quot;Mexican Food&quot; as preferred food type&lt;/span&gt;" style="rounded=0;whiteSpace=wrap;html=1;fontFamily=Helvetica;" parent="1" vertex="1">
          <mxGeometry x="360" y="330" width="140" height="60" as="geometry" />
        </mxCell>
        <mxCell id="Ga7t-dFnKdL9NbBifjGf-8" value="Hit Search" style="rounded=0;whiteSpace=wrap;html=1;fontFamily=Helvetica;" parent="1" vertex="1">
          <mxGeometry x="360" y="410" width="140" height="60" as="geometry" />
        </mxCell>
        <mxCell id="Ga7t-dFnKdL9NbBifjGf-9" value="" style="endArrow=none;dashed=1;html=1;fontFamily=Helvetica;exitX=1;exitY=1;exitDx=0;exitDy=0;entryX=0;entryY=0.5;entryDx=0;entryDy=0;" parent="1" source="Ga7t-dFnKdL9NbBifjGf-5" target="Ga7t-dFnKdL9NbBifjGf-8" edge="1">
          <mxGeometry width="50" height="50" relative="1" as="geometry">
            <mxPoint x="340" y="430" as="sourcePoint" />
            <mxPoint x="390" y="380" as="targetPoint" />
          </mxGeometry>
        </mxCell>
        <mxCell id="Ga7t-dFnKdL9NbBifjGf-10" value="" style="endArrow=none;dashed=1;html=1;dashPattern=1 3;strokeWidth=2;fontFamily=Helvetica;exitX=1;exitY=0.5;exitDx=0;exitDy=0;entryX=0;entryY=0.5;entryDx=0;entryDy=0;" parent="1" source="Ga7t-dFnKdL9NbBifjGf-5" target="Ga7t-dFnKdL9NbBifjGf-7" edge="1">
          <mxGeometry width="50" height="50" relative="1" as="geometry">
            <mxPoint x="220" y="370" as="sourcePoint" />
            <mxPoint x="270" y="320" as="targetPoint" />
          </mxGeometry>
        </mxCell>
        <mxCell id="Ga7t-dFnKdL9NbBifjGf-11" value="" style="endArrow=none;dashed=1;html=1;dashPattern=1 3;strokeWidth=2;fontFamily=Helvetica;exitX=1;exitY=0;exitDx=0;exitDy=0;entryX=0;entryY=0.5;entryDx=0;entryDy=0;" parent="1" source="Ga7t-dFnKdL9NbBifjGf-5" target="Ga7t-dFnKdL9NbBifjGf-6" edge="1">
          <mxGeometry width="50" height="50" relative="1" as="geometry">
            <mxPoint x="250" y="320" as="sourcePoint" />
            <mxPoint x="300" y="270" as="targetPoint" />
          </mxGeometry>
        </mxCell>
      </root>
    </mxGraphModel>
  </diagram>
</mxfile>
